<?xml version="1.0" encoding="utf-8"?>
<!-- Generator: Adobe Illustrator 23.0.4, SVG Export Plug-In . SVG Version: 6.00 Build 0)  -->
<svg version="1.1" id="Layer_1" xmlns="http://www.w3.org/2000/svg" xmlns:xlink="http://www.w3.org/1999/xlink" x="0px" y="0px"
	 viewBox="0 0 1200 630" style="enable-background:new 0 0 1200 630;" xml:space="preserve">
<style type="text/css">
	.st0{fill:#FAD549;}
	.st1{font-family:'CarlMarx-Regular';}
	.st2{font-size:150px;}
	.st3{letter-spacing:6;}
	.st4{fill-rule:evenodd;clip-rule:evenodd;}
	.st5{fill-rule:evenodd;clip-rule:evenodd;fill:#FFFFFF;}
</style>
<path class="st0" d="M0,0h1200v630H0V0z"/>
<text transform="matrix(1 0 0 1 376.9296 554.1378)" class="st1 st2 st3">BINDLER</text>
<path class="st4" d="M512,70.1h128c35.2,0,64,28.8,64,64s-28.8,64-64,64H512V70.1z M512,230.1h128c35.2,0,64,28.8,64,64
	s-28.8,64-64,64H512V230.1z"/>
<path class="st5" d="M496,54.1h128c35.2,0,64,28.8,64,64s-28.8,64-64,64H496V54.1z M496,214.1h128c35.2,0,64,28.8,64,64
	s-28.8,64-64,64H496V214.1z"/>
<path class="st4" d="M496,182.1l16,16v-16H496z M496,342.1l16,16v-16H496z"/>
</svg>
